<svg width="52" height="45" viewBox="0 0 52 45" fill="none" xmlns="http://www.w3.org/2000/svg">
<path d="M15.6319 35.4391L19.7153 12.3017C20.0344 10.3895 19.9705 8.54108 19.2687 6.75637C17.7374 2.86827 14.0368 0 9.82576 0H0V0.509915C2.29693 1.33853 4.08343 3.31445 4.91288 5.73654C4.97668 5.86402 4.97668 6.05524 5.04049 6.18272C5.2957 7.26629 5.2957 8.4136 5.10429 9.56091L0.957055 32.9533C0.70184 34.228 0.765643 35.6303 1.02086 36.9051C2.10552 41.5581 6.12515 45 10.8466 45H20.8638V44.5538C18.5031 43.7252 16.6528 41.813 15.8233 39.3272C15.7595 39.1997 15.7595 39.0085 15.6957 38.881C15.4405 37.7337 15.4405 36.5864 15.6319 35.4391Z" fill="white"/>
<path d="M33.4971 0C26.351 0 22.778 5.73654 21.502 13.8314H40.005C47.151 13.8314 50.724 8.0949 52.0001 0C52.0001 0 33.4971 0 33.4971 0Z" fill="#3BD4CA"/>
<path d="M21.1191 16.0623L18.6946 29.8938H27.8823C35.0283 29.8938 38.6013 24.1572 39.8774 16.0623H21.1191Z" fill="#3BD4CA"/>
</svg>
